<?xml version="1.0" encoding="utf-8"?>
<!-- Generated by Mocodo 4.3.2 -->
<svg width="625" height="372" viewBox="0 0 625 372" xmlns="http://www.w3.org/2000/svg">
<rect x="0" y="0" width="625" height="372" fill="#f7f7f7" stroke="none" stroke-width="0"/>

<!-- Association ASSOCIER -->
<g>
	<line x1="169" y1="68" x2="45" y2="68" stroke="#5aae61" stroke-width="2"/>
	<line x1="45" y1="177" x2="45" y2="68" stroke="#5aae61" stroke-width="2"/>
	<g>
		<path d="M63 43 a14 14 90 0 1 14 14 V68 h-64 V57 a14 14 90 0 1 14 -14" fill="#a6dba0" stroke="#a6dba0" stroke-width="0"/>
		<path d="M77 68 v11 a14 14 90 0 1 -14 14 H27 a14 14 90 0 1 -14 -14 V68 H64" fill="#d9f0d3" stroke="#d9f0d3" stroke-width="0"/>
		<rect x="13" y="43" width="64" height="50" fill="none" rx="14" stroke="#5aae61" stroke-width="2"/>
		<line x1="13" y1="68" x2="77" y2="68" stroke="#5aae61" stroke-width="1"/>
		<text x="20" y="60.75" fill="#000000" font-family="Verdana" font-size="12">associer</text>
	</g>
	<text x="91" y="85" fill="#762a83" font-family="Verdana" font-size="12">1,1</text>
	<text x="50" y="127" fill="#762a83" font-family="Verdana" font-size="12">0,N</text>
</g>

<!-- Association POSSEDER -->
<g>
	<line x1="169" y1="68" x2="288" y2="68" stroke="#5aae61" stroke-width="2"/>
	<line x1="420" y1="68" x2="288" y2="68" stroke="#5aae61" stroke-width="2"/>
	<g>
		<path d="M309 43 a14 14 90 0 1 14 14 V68 h-70 V57 a14 14 90 0 1 14 -14" fill="#a6dba0" stroke="#a6dba0" stroke-width="0"/>
		<path d="M323 68 v11 a14 14 90 0 1 -14 14 H267 a14 14 90 0 1 -14 -14 V68 H70" fill="#d9f0d3" stroke="#d9f0d3" stroke-width="0"/>
		<rect x="253" y="43" width="70" height="50" fill="none" rx="14" stroke="#5aae61" stroke-width="2"/>
		<line x1="253" y1="68" x2="323" y2="68" stroke="#5aae61" stroke-width="1"/>
		<text x="261" y="60.75" fill="#000000" font-family="Verdana" font-size="12">posséder</text>
	</g>
	<text x="226" y="60" fill="#762a83" font-family="Verdana" font-size="12">0,N</text>
	<text x="333" y="85" fill="#762a83" font-family="Verdana" font-size="12">1,1</text>
</g>

<!-- Association VOTER_CHALLENGE -->
<g>
	<line x1="288" y1="295" x2="169" y2="177" stroke="#5aae61" stroke-width="2"/>
	<line x1="169" y1="68" x2="169" y2="177" stroke="#5aae61" stroke-width="2"/>
	<g>
		<path d="M211 152 a14 14 90 0 1 14 14 V177 h-112 V166 a14 14 90 0 1 14 -14" fill="#a6dba0" stroke="#a6dba0" stroke-width="0"/>
		<path d="M225 177 v11 a14 14 90 0 1 -14 14 H127 a14 14 90 0 1 -14 -14 V177 H112" fill="#d9f0d3" stroke="#d9f0d3" stroke-width="0"/>
		<rect x="113" y="152" width="112" height="50" fill="none" rx="14" stroke="#5aae61" stroke-width="2"/>
		<line x1="113" y1="177" x2="225" y2="177" stroke="#5aae61" stroke-width="1"/>
		<text x="121" y="169.75" fill="#000000" font-family="Verdana" font-size="12">voter_challenge</text>
	</g>
	<text x="207" y="251.42" fill="#762a83" font-family="Verdana" font-size="12">0,N</text>
	<text x="142" y="144" fill="#762a83" font-family="Verdana" font-size="12">0,N</text>
</g>

<!-- Association CREER -->
<g>
	<line x1="288" y1="295" x2="288" y2="177" stroke="#5aae61" stroke-width="2"/>
	<line x1="169" y1="68" x2="288" y2="177" stroke="#5aae61" stroke-width="2"/>
	<g>
		<path d="M297 152 a14 14 90 0 1 14 14 V177 h-46 V166 a14 14 90 0 1 14 -14" fill="#a6dba0" stroke="#a6dba0" stroke-width="0"/>
		<path d="M311 177 v11 a14 14 90 0 1 -14 14 H279 a14 14 90 0 1 -14 -14 V177 H46" fill="#d9f0d3" stroke="#d9f0d3" stroke-width="0"/>
		<rect x="265" y="152" width="46" height="50" fill="none" rx="14" stroke="#5aae61" stroke-width="2"/>
		<line x1="265" y1="177" x2="311" y2="177" stroke="#5aae61" stroke-width="1"/>
		<text x="272" y="169.75" fill="#000000" font-family="Verdana" font-size="12">créer</text>
	</g>
	<text x="293" y="219" fill="#762a83" font-family="Verdana" font-size="12">0,N</text>
	<text x="226" y="114.26" fill="#762a83" font-family="Verdana" font-size="12">1,1</text>
</g>

<!-- Association PUBLIER -->
<g>
	<line x1="288" y1="295" x2="420" y2="177" stroke="#5aae61" stroke-width="2"/>
	<line x1="420" y1="68" x2="420" y2="177" stroke="#5aae61" stroke-width="2"/>
	<g>
		<path d="M434 152 a14 14 90 0 1 14 14 V177 h-56 V166 a14 14 90 0 1 14 -14" fill="#a6dba0" stroke="#a6dba0" stroke-width="0"/>
		<path d="M448 177 v11 a14 14 90 0 1 -14 14 H406 a14 14 90 0 1 -14 -14 V177 H56" fill="#d9f0d3" stroke="#d9f0d3" stroke-width="0"/>
		<rect x="392" y="152" width="56" height="50" fill="none" rx="14" stroke="#5aae61" stroke-width="2"/>
		<line x1="392" y1="177" x2="448" y2="177" stroke="#5aae61" stroke-width="1"/>
		<text x="399" y="169.75" fill="#000000" font-family="Verdana" font-size="12">publier</text>
	</g>
	<text x="347" y="257.22" fill="#762a83" font-family="Verdana" font-size="12">0,N</text>
	<text x="394" y="136" fill="#762a83" font-family="Verdana" font-size="12">1,1</text>
</g>

<!-- Association VOTER_PARTICIPATION -->
<g>
	<line x1="288" y1="295" x2="551" y2="177" stroke="#5aae61" stroke-width="2"/>
	<line x1="420" y1="68" x2="551" y2="177" stroke="#5aae61" stroke-width="2"/>
	<g>
		<path d="M602 152 a14 14 90 0 1 14 14 V177 h-130 V166 a14 14 90 0 1 14 -14" fill="#a6dba0" stroke="#a6dba0" stroke-width="0"/>
		<path d="M616 177 v11 a14 14 90 0 1 -14 14 H500 a14 14 90 0 1 -14 -14 V177 H130" fill="#d9f0d3" stroke="#d9f0d3" stroke-width="0"/>
		<rect x="486" y="152" width="130" height="50" fill="none" rx="14" stroke="#5aae61" stroke-width="2"/>
		<line x1="486" y1="177" x2="616" y2="177" stroke="#5aae61" stroke-width="1"/>
		<text x="494" y="169.75" fill="#000000" font-family="Verdana" font-size="12">voter_participation</text>
	</g>
	<text x="347" y="284.26" fill="#762a83" font-family="Verdana" font-size="12">0,N</text>
	<text x="486" y="116.91" fill="#762a83" font-family="Verdana" font-size="12">0,N</text>
</g>

<!-- Association APPARTENIR_A -->
<g>
	<line x1="288" y1="295" x2="420" y2="295" stroke="#5aae61" stroke-width="2"/>
	<line x1="551" y1="295" x2="420" y2="295" stroke="#5aae61" stroke-width="2"/>
	<g>
		<path d="M452 270 a14 14 90 0 1 14 14 V295 h-92 V284 a14 14 90 0 1 14 -14" fill="#a6dba0" stroke="#a6dba0" stroke-width="0"/>
		<path d="M466 295 v11 a14 14 90 0 1 -14 14 H388 a14 14 90 0 1 -14 -14 V295 H92" fill="#d9f0d3" stroke="#d9f0d3" stroke-width="0"/>
		<rect x="374" y="270" width="92" height="50" fill="none" rx="14" stroke="#5aae61" stroke-width="2"/>
		<line x1="374" y1="295" x2="466" y2="295" stroke="#5aae61" stroke-width="1"/>
		<text x="381" y="287.75" fill="#000000" font-family="Verdana" font-size="12">appartenir_à</text>
	</g>
	<text x="347" y="312" fill="#762a83" font-family="Verdana" font-size="12">0,N</text>
	<text x="472" y="312" fill="#762a83" font-family="Verdana" font-size="12">1,1</text>
</g>

<!-- Entity CHALLENGE -->
<g>
	<g>
		<rect x="117" y="9" width="104" height="25" fill="#c2a5cf" stroke="none" stroke-width="0" opacity="1"/>
		<rect x="117" y="34" width="104" height="93" fill="#e7d4e8" stroke="none" stroke-width="0" opacity="1"/>
		<rect x="117" y="9" width="104" height="118" fill="none" stroke="#9970ab" stroke-width="2" opacity="1"/>
		<line x1="117" y1="34" x2="221" y2="34" stroke="#9970ab" stroke-width="1"/>
	</g>
	<text x="140" y="26.75" fill="#000000" font-family="Verdana" font-size="12">challenge</text>
	<text x="122" y="51.8" fill="#000000" font-family="Verdana" font-size="12">code_challenge</text>
	<line x1="122" y1="54" x2="216" y2="54" stroke="#000000" stroke-width="1"/>
	<text x="122" y="68.8" fill="#000000" font-family="Verdana" font-size="12">nom</text>
	<text x="122" y="85.8" fill="#000000" font-family="Verdana" font-size="12">description</text>
	<text x="122" y="102.8" fill="#000000" font-family="Verdana" font-size="12">règles</text>
	<text x="122" y="119.8" fill="#000000" font-family="Verdana" font-size="12">date_creation</text>
</g>

<!-- Entity PARTICIPATION -->
<g>
	<g>
		<rect x="359" y="17" width="122" height="25" fill="#c2a5cf" stroke="none" stroke-width="0" opacity="1"/>
		<rect x="359" y="42" width="122" height="77" fill="#e7d4e8" stroke="none" stroke-width="0" opacity="1"/>
		<rect x="359" y="17" width="122" height="102" fill="none" stroke="#9970ab" stroke-width="2" opacity="1"/>
		<line x1="359" y1="42" x2="481" y2="42" stroke="#9970ab" stroke-width="1"/>
	</g>
	<text x="382" y="34.75" fill="#000000" font-family="Verdana" font-size="12">participation</text>
	<text x="364" y="59.8" fill="#000000" font-family="Verdana" font-size="12">code_participation</text>
	<line x1="364" y1="62" x2="476" y2="62" stroke="#000000" stroke-width="1"/>
	<text x="364" y="76.8" fill="#000000" font-family="Verdana" font-size="12">titre</text>
	<text x="364" y="93.8" fill="#000000" font-family="Verdana" font-size="12">video_url</text>
	<text x="364" y="110.8" fill="#000000" font-family="Verdana" font-size="12">date_creation</text>
</g>

<!-- Entity JEU -->
<g>
	<g>
		<rect x="9" y="135" width="72" height="25" fill="#c2a5cf" stroke="none" stroke-width="0" opacity="1"/>
		<rect x="9" y="160" width="72" height="59" fill="#e7d4e8" stroke="none" stroke-width="0" opacity="1"/>
		<rect x="9" y="135" width="72" height="84" fill="none" stroke="#9970ab" stroke-width="2" opacity="1"/>
		<line x1="9" y1="160" x2="81" y2="160" stroke="#9970ab" stroke-width="1"/>
	</g>
	<text x="35" y="152.75" fill="#000000" font-family="Verdana" font-size="12">jeu</text>
	<text x="14" y="177.8" fill="#000000" font-family="Verdana" font-size="12">code_jeu</text>
	<line x1="14" y1="180" x2="70" y2="180" stroke="#000000" stroke-width="1"/>
	<text x="14" y="194.8" fill="#000000" font-family="Verdana" font-size="12">titre</text>
	<text x="14" y="211.8" fill="#000000" font-family="Verdana" font-size="12">image_url</text>
</g>

<!-- Entity UTILISATEUR -->
<g>
	<g>
		<rect x="234" y="227" width="108" height="25" fill="#c2a5cf" stroke="none" stroke-width="0" opacity="1"/>
		<rect x="234" y="252" width="108" height="111" fill="#e7d4e8" stroke="none" stroke-width="0" opacity="1"/>
		<rect x="234" y="227" width="108" height="136" fill="none" stroke="#9970ab" stroke-width="2" opacity="1"/>
		<line x1="234" y1="252" x2="342" y2="252" stroke="#9970ab" stroke-width="1"/>
	</g>
	<text x="258" y="244.75" fill="#000000" font-family="Verdana" font-size="12">utilisateur</text>
	<text x="239" y="269.8" fill="#000000" font-family="Verdana" font-size="12">code_utilisateur</text>
	<line x1="239" y1="272" x2="336" y2="272" stroke="#000000" stroke-width="1"/>
	<text x="239" y="286.8" fill="#000000" font-family="Verdana" font-size="12">pseudo</text>
	<text x="239" y="303.8" fill="#000000" font-family="Verdana" font-size="12">avatar_url</text>
	<text x="239" y="320.8" fill="#000000" font-family="Verdana" font-size="12">email</text>
	<text x="239" y="337.8" fill="#000000" font-family="Verdana" font-size="12">mot_de_passe</text>
	<text x="239" y="354.8" fill="#000000" font-family="Verdana" font-size="12">rôle</text>
</g>

<!-- Entity JETON -->
<g>
	<g>
		<rect x="498" y="236" width="106" height="25" fill="#c2a5cf" stroke="none" stroke-width="0" opacity="1"/>
		<rect x="498" y="261" width="106" height="93" fill="#e7d4e8" stroke="none" stroke-width="0" opacity="1"/>
		<rect x="498" y="236" width="106" height="118" fill="none" stroke="#9970ab" stroke-width="2" opacity="1"/>
		<line x1="498" y1="261" x2="604" y2="261" stroke="#9970ab" stroke-width="1"/>
	</g>
	<text x="535" y="253.75" fill="#000000" font-family="Verdana" font-size="12">jeton</text>
	<text x="503" y="278.8" fill="#000000" font-family="Verdana" font-size="12">code_jeton</text>
	<line x1="503" y1="281" x2="571" y2="281" stroke="#000000" stroke-width="1"/>
	<text x="503" y="295.8" fill="#000000" font-family="Verdana" font-size="12">valeur</text>
	<text x="503" y="312.8" fill="#000000" font-family="Verdana" font-size="12">type</text>
	<text x="503" y="329.8" fill="#000000" font-family="Verdana" font-size="12">date_creation</text>
	<text x="503" y="346.8" fill="#000000" font-family="Verdana" font-size="12">date_expiration</text>
</g>
</svg>